<?xml version="1.0" encoding="UTF-8"?>
<svg xmlns="http://www.w3.org/2000/svg" width="462" height="582" viewBox="0 0 462 582">
  <rect width="100%" height="100%" fill="#ffffff"/>
  <text x="231" y="42" text-anchor="middle" font-family="-apple-system, BlinkMacSystemFont, 'Hiragino Sans', sans-serif" font-size="28" font-weight="900" fill="#1d4ed8">道エネSSサービスマスター</text>
  <text x="231" y="78" text-anchor="middle" font-family="-apple-system, BlinkMacSystemFont, 'Hiragino Sans', sans-serif" font-size="22" font-weight="800" fill="#f97316">スマホで読み取って開く</text>
  <text x="231" y="106" text-anchor="middle" font-family="-apple-system, BlinkMacSystemFont, 'Hiragino Sans', sans-serif" font-size="22" font-weight="900" fill="#111827">合言葉: 583</text>
  <g fill="#000000" shape-rendering="crispEdges"><rect x="56" y="176" width="14" height="14"/><rect x="70" y="176" width="14" height="14"/><rect x="84" y="176" width="14" height="14"/><rect x="98" y="176" width="14" height="14"/><rect x="112" y="176" width="14" height="14"/><rect x="126" y="176" width="14" height="14"/><rect x="140" y="176" width="14" height="14"/><rect x="196" y="176" width="14" height="14"/><rect x="266" y="176" width="14" height="14"/><rect x="280" y="176" width="14" height="14"/><rect x="308" y="176" width="14" height="14"/><rect x="322" y="176" width="14" height="14"/><rect x="336" y="176" width="14" height="14"/><rect x="350" y="176" width="14" height="14"/><rect x="364" y="176" width="14" height="14"/><rect x="378" y="176" width="14" height="14"/><rect x="392" y="176" width="14" height="14"/><rect x="56" y="190" width="14" height="14"/><rect x="140" y="190" width="14" height="14"/><rect x="182" y="190" width="14" height="14"/><rect x="252" y="190" width="14" height="14"/><rect x="266" y="190" width="14" height="14"/><rect x="308" y="190" width="14" height="14"/><rect x="392" y="190" width="14" height="14"/><rect x="56" y="204" width="14" height="14"/><rect x="84" y="204" width="14" height="14"/><rect x="98" y="204" width="14" height="14"/><rect x="112" y="204" width="14" height="14"/><rect x="140" y="204" width="14" height="14"/><rect x="168" y="204" width="14" height="14"/><rect x="210" y="204" width="14" height="14"/><rect x="266" y="204" width="14" height="14"/><rect x="308" y="204" width="14" height="14"/><rect x="336" y="204" width="14" height="14"/><rect x="350" y="204" width="14" height="14"/><rect x="364" y="204" width="14" height="14"/><rect x="392" y="204" width="14" height="14"/><rect x="56" y="218" width="14" height="14"/><rect x="84" y="218" width="14" height="14"/><rect x="98" y="218" width="14" height="14"/><rect x="112" y="218" width="14" height="14"/><rect x="140" y="218" width="14" height="14"/><rect x="182" y="218" width="14" height="14"/><rect x="224" y="218" width="14" height="14"/><rect x="308" y="218" width="14" height="14"/><rect x="336" y="218" width="14" height="14"/><rect x="350" y="218" width="14" height="14"/><rect x="364" y="218" width="14" height="14"/><rect x="392" y="218" width="14" height="14"/><rect x="56" y="232" width="14" height="14"/><rect x="84" y="232" width="14" height="14"/><rect x="98" y="232" width="14" height="14"/><rect x="112" y="232" width="14" height="14"/><rect x="140" y="232" width="14" height="14"/><rect x="182" y="232" width="14" height="14"/><rect x="224" y="232" width="14" height="14"/><rect x="238" y="232" width="14" height="14"/><rect x="266" y="232" width="14" height="14"/><rect x="280" y="232" width="14" height="14"/><rect x="308" y="232" width="14" height="14"/><rect x="336" y="232" width="14" height="14"/><rect x="350" y="232" width="14" height="14"/><rect x="364" y="232" width="14" height="14"/><rect x="392" y="232" width="14" height="14"/><rect x="56" y="246" width="14" height="14"/><rect x="140" y="246" width="14" height="14"/><rect x="196" y="246" width="14" height="14"/><rect x="210" y="246" width="14" height="14"/><rect x="224" y="246" width="14" height="14"/><rect x="266" y="246" width="14" height="14"/><rect x="280" y="246" width="14" height="14"/><rect x="308" y="246" width="14" height="14"/><rect x="392" y="246" width="14" height="14"/><rect x="56" y="260" width="14" height="14"/><rect x="70" y="260" width="14" height="14"/><rect x="84" y="260" width="14" height="14"/><rect x="98" y="260" width="14" height="14"/><rect x="112" y="260" width="14" height="14"/><rect x="126" y="260" width="14" height="14"/><rect x="140" y="260" width="14" height="14"/><rect x="168" y="260" width="14" height="14"/><rect x="196" y="260" width="14" height="14"/><rect x="224" y="260" width="14" height="14"/><rect x="252" y="260" width="14" height="14"/><rect x="280" y="260" width="14" height="14"/><rect x="308" y="260" width="14" height="14"/><rect x="322" y="260" width="14" height="14"/><rect x="336" y="260" width="14" height="14"/><rect x="350" y="260" width="14" height="14"/><rect x="364" y="260" width="14" height="14"/><rect x="378" y="260" width="14" height="14"/><rect x="392" y="260" width="14" height="14"/><rect x="168" y="274" width="14" height="14"/><rect x="210" y="274" width="14" height="14"/><rect x="238" y="274" width="14" height="14"/><rect x="266" y="274" width="14" height="14"/><rect x="56" y="288" width="14" height="14"/><rect x="70" y="288" width="14" height="14"/><rect x="84" y="288" width="14" height="14"/><rect x="112" y="288" width="14" height="14"/><rect x="126" y="288" width="14" height="14"/><rect x="140" y="288" width="14" height="14"/><rect x="154" y="288" width="14" height="14"/><rect x="168" y="288" width="14" height="14"/><rect x="224" y="288" width="14" height="14"/><rect x="238" y="288" width="14" height="14"/><rect x="252" y="288" width="14" height="14"/><rect x="294" y="288" width="14" height="14"/><rect x="308" y="288" width="14" height="14"/><rect x="364" y="288" width="14" height="14"/><rect x="70" y="302" width="14" height="14"/><rect x="112" y="302" width="14" height="14"/><rect x="154" y="302" width="14" height="14"/><rect x="168" y="302" width="14" height="14"/><rect x="182" y="302" width="14" height="14"/><rect x="210" y="302" width="14" height="14"/><rect x="224" y="302" width="14" height="14"/><rect x="238" y="302" width="14" height="14"/><rect x="252" y="302" width="14" height="14"/><rect x="308" y="302" width="14" height="14"/><rect x="322" y="302" width="14" height="14"/><rect x="392" y="302" width="14" height="14"/><rect x="56" y="316" width="14" height="14"/><rect x="70" y="316" width="14" height="14"/><rect x="98" y="316" width="14" height="14"/><rect x="112" y="316" width="14" height="14"/><rect x="140" y="316" width="14" height="14"/><rect x="196" y="316" width="14" height="14"/><rect x="210" y="316" width="14" height="14"/><rect x="224" y="316" width="14" height="14"/><rect x="280" y="316" width="14" height="14"/><rect x="308" y="316" width="14" height="14"/><rect x="322" y="316" width="14" height="14"/><rect x="336" y="316" width="14" height="14"/><rect x="364" y="316" width="14" height="14"/><rect x="378" y="316" width="14" height="14"/><rect x="392" y="316" width="14" height="14"/><rect x="56" y="330" width="14" height="14"/><rect x="70" y="330" width="14" height="14"/><rect x="126" y="330" width="14" height="14"/><rect x="154" y="330" width="14" height="14"/><rect x="168" y="330" width="14" height="14"/><rect x="182" y="330" width="14" height="14"/><rect x="196" y="330" width="14" height="14"/><rect x="224" y="330" width="14" height="14"/><rect x="238" y="330" width="14" height="14"/><rect x="252" y="330" width="14" height="14"/><rect x="280" y="330" width="14" height="14"/><rect x="294" y="330" width="14" height="14"/><rect x="308" y="330" width="14" height="14"/><rect x="322" y="330" width="14" height="14"/><rect x="336" y="330" width="14" height="14"/><rect x="378" y="330" width="14" height="14"/><rect x="56" y="344" width="14" height="14"/><rect x="70" y="344" width="14" height="14"/><rect x="126" y="344" width="14" height="14"/><rect x="140" y="344" width="14" height="14"/><rect x="154" y="344" width="14" height="14"/><rect x="196" y="344" width="14" height="14"/><rect x="210" y="344" width="14" height="14"/><rect x="238" y="344" width="14" height="14"/><rect x="252" y="344" width="14" height="14"/><rect x="266" y="344" width="14" height="14"/><rect x="280" y="344" width="14" height="14"/><rect x="308" y="344" width="14" height="14"/><rect x="322" y="344" width="14" height="14"/><rect x="350" y="344" width="14" height="14"/><rect x="378" y="344" width="14" height="14"/><rect x="392" y="344" width="14" height="14"/><rect x="70" y="358" width="14" height="14"/><rect x="84" y="358" width="14" height="14"/><rect x="112" y="358" width="14" height="14"/><rect x="126" y="358" width="14" height="14"/><rect x="154" y="358" width="14" height="14"/><rect x="168" y="358" width="14" height="14"/><rect x="196" y="358" width="14" height="14"/><rect x="210" y="358" width="14" height="14"/><rect x="238" y="358" width="14" height="14"/><rect x="252" y="358" width="14" height="14"/><rect x="294" y="358" width="14" height="14"/><rect x="308" y="358" width="14" height="14"/><rect x="322" y="358" width="14" height="14"/><rect x="350" y="358" width="14" height="14"/><rect x="392" y="358" width="14" height="14"/><rect x="56" y="372" width="14" height="14"/><rect x="84" y="372" width="14" height="14"/><rect x="98" y="372" width="14" height="14"/><rect x="126" y="372" width="14" height="14"/><rect x="140" y="372" width="14" height="14"/><rect x="196" y="372" width="14" height="14"/><rect x="252" y="372" width="14" height="14"/><rect x="280" y="372" width="14" height="14"/><rect x="294" y="372" width="14" height="14"/><rect x="322" y="372" width="14" height="14"/><rect x="336" y="372" width="14" height="14"/><rect x="364" y="372" width="14" height="14"/><rect x="378" y="372" width="14" height="14"/><rect x="392" y="372" width="14" height="14"/><rect x="70" y="386" width="14" height="14"/><rect x="84" y="386" width="14" height="14"/><rect x="98" y="386" width="14" height="14"/><rect x="154" y="386" width="14" height="14"/><rect x="168" y="386" width="14" height="14"/><rect x="196" y="386" width="14" height="14"/><rect x="210" y="386" width="14" height="14"/><rect x="238" y="386" width="14" height="14"/><rect x="252" y="386" width="14" height="14"/><rect x="266" y="386" width="14" height="14"/><rect x="294" y="386" width="14" height="14"/><rect x="308" y="386" width="14" height="14"/><rect x="322" y="386" width="14" height="14"/><rect x="350" y="386" width="14" height="14"/><rect x="378" y="386" width="14" height="14"/><rect x="56" y="400" width="14" height="14"/><rect x="84" y="400" width="14" height="14"/><rect x="126" y="400" width="14" height="14"/><rect x="140" y="400" width="14" height="14"/><rect x="168" y="400" width="14" height="14"/><rect x="196" y="400" width="14" height="14"/><rect x="224" y="400" width="14" height="14"/><rect x="238" y="400" width="14" height="14"/><rect x="252" y="400" width="14" height="14"/><rect x="266" y="400" width="14" height="14"/><rect x="280" y="400" width="14" height="14"/><rect x="294" y="400" width="14" height="14"/><rect x="308" y="400" width="14" height="14"/><rect x="322" y="400" width="14" height="14"/><rect x="336" y="400" width="14" height="14"/><rect x="350" y="400" width="14" height="14"/><rect x="168" y="414" width="14" height="14"/><rect x="210" y="414" width="14" height="14"/><rect x="224" y="414" width="14" height="14"/><rect x="238" y="414" width="14" height="14"/><rect x="252" y="414" width="14" height="14"/><rect x="280" y="414" width="14" height="14"/><rect x="336" y="414" width="14" height="14"/><rect x="350" y="414" width="14" height="14"/><rect x="364" y="414" width="14" height="14"/><rect x="378" y="414" width="14" height="14"/><rect x="392" y="414" width="14" height="14"/><rect x="56" y="428" width="14" height="14"/><rect x="70" y="428" width="14" height="14"/><rect x="84" y="428" width="14" height="14"/><rect x="98" y="428" width="14" height="14"/><rect x="112" y="428" width="14" height="14"/><rect x="126" y="428" width="14" height="14"/><rect x="140" y="428" width="14" height="14"/><rect x="168" y="428" width="14" height="14"/><rect x="210" y="428" width="14" height="14"/><rect x="224" y="428" width="14" height="14"/><rect x="238" y="428" width="14" height="14"/><rect x="266" y="428" width="14" height="14"/><rect x="280" y="428" width="14" height="14"/><rect x="308" y="428" width="14" height="14"/><rect x="336" y="428" width="14" height="14"/><rect x="378" y="428" width="14" height="14"/><rect x="392" y="428" width="14" height="14"/><rect x="56" y="442" width="14" height="14"/><rect x="140" y="442" width="14" height="14"/><rect x="168" y="442" width="14" height="14"/><rect x="182" y="442" width="14" height="14"/><rect x="224" y="442" width="14" height="14"/><rect x="238" y="442" width="14" height="14"/><rect x="252" y="442" width="14" height="14"/><rect x="266" y="442" width="14" height="14"/><rect x="280" y="442" width="14" height="14"/><rect x="336" y="442" width="14" height="14"/><rect x="350" y="442" width="14" height="14"/><rect x="378" y="442" width="14" height="14"/><rect x="56" y="456" width="14" height="14"/><rect x="84" y="456" width="14" height="14"/><rect x="98" y="456" width="14" height="14"/><rect x="112" y="456" width="14" height="14"/><rect x="140" y="456" width="14" height="14"/><rect x="168" y="456" width="14" height="14"/><rect x="210" y="456" width="14" height="14"/><rect x="224" y="456" width="14" height="14"/><rect x="238" y="456" width="14" height="14"/><rect x="252" y="456" width="14" height="14"/><rect x="280" y="456" width="14" height="14"/><rect x="294" y="456" width="14" height="14"/><rect x="308" y="456" width="14" height="14"/><rect x="322" y="456" width="14" height="14"/><rect x="336" y="456" width="14" height="14"/><rect x="56" y="470" width="14" height="14"/><rect x="84" y="470" width="14" height="14"/><rect x="98" y="470" width="14" height="14"/><rect x="112" y="470" width="14" height="14"/><rect x="140" y="470" width="14" height="14"/><rect x="182" y="470" width="14" height="14"/><rect x="210" y="470" width="14" height="14"/><rect x="238" y="470" width="14" height="14"/><rect x="252" y="470" width="14" height="14"/><rect x="266" y="470" width="14" height="14"/><rect x="280" y="470" width="14" height="14"/><rect x="294" y="470" width="14" height="14"/><rect x="336" y="470" width="14" height="14"/><rect x="364" y="470" width="14" height="14"/><rect x="56" y="484" width="14" height="14"/><rect x="84" y="484" width="14" height="14"/><rect x="98" y="484" width="14" height="14"/><rect x="112" y="484" width="14" height="14"/><rect x="140" y="484" width="14" height="14"/><rect x="168" y="484" width="14" height="14"/><rect x="182" y="484" width="14" height="14"/><rect x="238" y="484" width="14" height="14"/><rect x="252" y="484" width="14" height="14"/><rect x="266" y="484" width="14" height="14"/><rect x="280" y="484" width="14" height="14"/><rect x="294" y="484" width="14" height="14"/><rect x="336" y="484" width="14" height="14"/><rect x="350" y="484" width="14" height="14"/><rect x="392" y="484" width="14" height="14"/><rect x="56" y="498" width="14" height="14"/><rect x="140" y="498" width="14" height="14"/><rect x="168" y="498" width="14" height="14"/><rect x="224" y="498" width="14" height="14"/><rect x="238" y="498" width="14" height="14"/><rect x="252" y="498" width="14" height="14"/><rect x="280" y="498" width="14" height="14"/><rect x="294" y="498" width="14" height="14"/><rect x="336" y="498" width="14" height="14"/><rect x="350" y="498" width="14" height="14"/><rect x="378" y="498" width="14" height="14"/><rect x="56" y="512" width="14" height="14"/><rect x="70" y="512" width="14" height="14"/><rect x="84" y="512" width="14" height="14"/><rect x="98" y="512" width="14" height="14"/><rect x="112" y="512" width="14" height="14"/><rect x="126" y="512" width="14" height="14"/><rect x="140" y="512" width="14" height="14"/><rect x="168" y="512" width="14" height="14"/><rect x="182" y="512" width="14" height="14"/><rect x="196" y="512" width="14" height="14"/><rect x="210" y="512" width="14" height="14"/><rect x="224" y="512" width="14" height="14"/><rect x="238" y="512" width="14" height="14"/><rect x="252" y="512" width="14" height="14"/><rect x="280" y="512" width="14" height="14"/><rect x="294" y="512" width="14" height="14"/><rect x="308" y="512" width="14" height="14"/><rect x="322" y="512" width="14" height="14"/><rect x="378" y="512" width="14" height="14"/><rect x="392" y="512" width="14" height="14"/></g>
</svg>
